<svg xmlns="http://www.w3.org/2000/svg" width="810" viewBox="0 0 810 810" height="810" version="1.0"><defs><clipPath id="a"><path d="M 0 0 L 809.667969 0 L 809.667969 809.667969 L 0 809.667969 Z M 0 0"/></clipPath><clipPath id="b"><path d="M 311.289062 165.289062 L 521.867188 165.289062 L 521.867188 333 L 311.289062 333 Z M 311.289062 165.289062"/></clipPath></defs><path fill="#2C52FD" d="M 240.121094 114.414062 C 236.359375 116.582031 232.511719 118.851562 228.742188 121.210938 C 226.910156 122.347656 226.339844 124.769531 227.476562 126.605469 C 228.210938 127.804688 229.503906 128.476562 230.804688 128.476562 C 231.527344 128.476562 232.230469 128.265625 232.890625 127.886719 C 236.570312 125.59375 240.328125 123.351562 244.007812 121.238281 C 245.902344 120.179688 246.574219 117.792969 245.480469 115.90625 C 244.414062 114.015625 242.007812 113.347656 240.121094 114.414062"/><path fill="#2C52FD" d="M 178.03125 638.972656 C 176.476562 637.460938 174 637.507812 172.472656 639.0625 C 170.972656 640.609375 171 643.082031 172.574219 644.59375 C 175.734375 647.691406 178.996094 650.703125 182.25 653.621094 C 182.992188 654.289062 183.941406 654.621094 184.871094 654.621094 C 185.945312 654.621094 187.023438 654.199219 187.800781 653.304688 C 189.246094 651.703125 189.089844 649.199219 187.484375 647.800781 C 184.300781 644.945312 181.128906 641.964844 178.03125 638.972656"/><path fill="#2C52FD" d="M 302.941406 714.578125 C 298.839844 713.214844 294.726562 711.777344 290.742188 710.296875 C 288.726562 709.519531 286.460938 710.550781 285.699219 712.59375 C 284.933594 714.625 285.980469 716.894531 287.996094 717.652344 C 292.089844 719.171875 296.28125 720.644531 300.476562 722.027344 C 300.898438 722.152344 301.316406 722.226562 301.703125 722.226562 C 303.367188 722.226562 304.902344 721.167969 305.4375 719.523438 C 306.121094 717.488281 305.011719 715.25 302.941406 714.578125"/><path fill="#2C52FD" d="M 270.925781 98.988281 C 266.894531 100.734375 262.855469 102.621094 258.898438 104.527344 C 256.9375 105.476562 256.132812 107.835938 257.089844 109.796875 C 257.757812 111.179688 259.160156 112 260.613281 112 C 261.203125 112 261.773438 111.875 262.339844 111.605469 C 266.199219 109.707031 270.148438 107.890625 274.105469 106.164062 C 276.078125 105.277344 276.972656 102.984375 276.105469 100.996094 C 275.226562 99.015625 272.914062 98.101562 270.925781 98.988281"/><path fill="#2C52FD" d="M 184.148438 154.382812 C 180.851562 157.285156 177.550781 160.308594 174.390625 163.335938 C 172.84375 164.828125 172.761719 167.304688 174.253906 168.886719 C 175.03125 169.691406 176.078125 170.097656 177.101562 170.097656 C 178.074219 170.097656 179.0625 169.753906 179.820312 169.003906 C 182.917969 166.058594 186.109375 163.101562 189.355469 160.265625 C 190.980469 158.855469 191.132812 156.351562 189.707031 154.71875 C 188.261719 153.089844 185.773438 152.953125 184.148438 154.382812"/><path fill="#2C52FD" d="M 213.617188 668.875 C 210.164062 666.34375 206.6875 663.730469 203.324219 661.066406 C 201.625 659.730469 199.160156 660.007812 197.804688 661.726562 C 196.484375 663.441406 196.753906 665.917969 198.460938 667.238281 C 201.90625 669.96875 205.464844 672.652344 209.027344 675.207031 C 209.722656 675.714844 210.527344 675.984375 211.332031 675.984375 C 212.53125 675.984375 213.734375 675.40625 214.492188 674.339844 C 215.777344 672.578125 215.398438 670.148438 213.617188 668.875"/><path fill="#2C52FD" d="M 241.78125 687.144531 C 238.105469 685.046875 234.402344 682.78125 230.75 680.46875 C 228.90625 679.292969 226.476562 679.878906 225.320312 681.6875 C 224.171875 683.539062 224.714844 685.953125 226.546875 687.101562 C 230.289062 689.46875 234.074219 691.78125 237.84375 693.96875 C 238.46875 694.300781 239.136719 694.484375 239.824219 694.484375 C 241.179688 694.484375 242.488281 693.769531 243.21875 692.523438 C 244.285156 690.652344 243.636719 688.238281 241.78125 687.144531"/><path fill="#2C52FD" d="M 211.105469 132.957031 C 207.542969 135.488281 203.964844 138.160156 200.476562 140.863281 C 198.761719 142.191406 198.460938 144.667969 199.78125 146.386719 C 200.558594 147.371094 201.714844 147.886719 202.882812 147.886719 C 203.738281 147.886719 204.582031 147.632812 205.285156 147.082031 C 208.699219 144.441406 212.179688 141.839844 215.667969 139.347656 C 217.429688 138.097656 217.84375 135.648438 216.582031 133.886719 C 215.332031 132.089844 212.867188 131.699219 211.105469 132.957031"/><path fill="#2C52FD" d="M 435.652344 729.355469 C 431.359375 729.769531 427.03125 730.085938 422.730469 730.332031 C 420.570312 730.449219 418.914062 732.292969 419.023438 734.433594 C 419.140625 736.53125 420.875 738.15625 422.9375 738.15625 C 423.019531 738.15625 423.089844 738.15625 423.152344 738.15625 C 427.527344 737.929688 431.972656 737.578125 436.367188 737.1875 C 438.523438 736.992188 440.105469 735.074219 439.925781 732.914062 C 439.707031 730.753906 437.792969 729.148438 435.652344 729.355469"/><path fill="#2C52FD" d="M 370.460938 72.765625 C 366.089844 73.234375 361.660156 73.769531 357.3125 74.375 C 355.191406 74.707031 353.699219 76.679688 353.996094 78.828125 C 354.277344 80.773438 355.96875 82.199219 357.882812 82.199219 C 358.074219 82.199219 358.261719 82.191406 358.445312 82.152344 C 362.664062 81.546875 366.984375 81.015625 371.265625 80.589844 C 373.425781 80.363281 375 78.449219 374.78125 76.269531 C 374.554688 74.113281 372.640625 72.566406 370.460938 72.765625"/><path fill="#2C52FD" d="M 303.1875 86.789062 C 298.992188 88.128906 294.765625 89.574219 290.625 91.0625 C 288.59375 91.824219 287.535156 94.074219 288.285156 96.117188 C 288.863281 97.707031 290.363281 98.683594 291.960938 98.683594 C 292.421875 98.683594 292.875 98.636719 293.316406 98.457031 C 297.347656 96.992188 301.46875 95.601562 305.582031 94.273438 C 307.648438 93.621094 308.78125 91.398438 308.128906 89.347656 C 307.46875 87.257812 305.265625 86.121094 303.1875 86.789062"/><path fill="#2C52FD" d="M 404.835938 71.03125 C 400.398438 71.03125 395.945312 71.101562 391.597656 71.273438 C 389.421875 71.363281 387.75 73.191406 387.820312 75.359375 C 387.902344 77.492188 389.65625 79.144531 391.753906 79.144531 C 391.796875 79.144531 391.851562 79.144531 391.90625 79.144531 C 396.160156 78.964844 400.507812 78.875 404.835938 78.875 C 406.996094 78.875 408.742188 77.121094 408.742188 74.953125 C 408.742188 72.792969 406.996094 71.03125 404.835938 71.03125"/><path fill="#2C52FD" d="M 368.519531 728.820312 C 364.253906 728.332031 359.933594 727.765625 355.707031 727.140625 C 353.5625 726.789062 351.539062 728.261719 351.222656 730.421875 C 350.898438 732.5625 352.378906 734.570312 354.523438 734.902344 C 358.867188 735.5625 363.289062 736.140625 367.671875 736.59375 C 367.789062 736.636719 367.941406 736.636719 368.085938 736.636719 C 370.066406 736.636719 371.761719 735.148438 371.988281 733.140625 C 372.234375 731 370.679688 729.054688 368.519531 728.820312"/><path fill="#2C52FD" d="M 335.363281 723.398438 C 331.152344 722.488281 326.914062 721.457031 322.777344 720.390625 C 320.699219 719.839844 318.539062 721.105469 318.003906 723.199219 C 317.453125 725.324219 318.703125 727.421875 320.816406 727.988281 C 325.046875 729.109375 329.390625 730.132812 333.683594 731.0625 C 333.964844 731.117188 334.253906 731.132812 334.523438 731.132812 C 336.339844 731.132812 337.96875 729.886719 338.355469 728.042969 C 338.816406 725.9375 337.460938 723.832031 335.363281 723.398438"/><path fill="#2C52FD" d="M 336.457031 78.035156 C 332.15625 78.9375 327.808594 79.941406 323.5625 80.988281 C 321.457031 81.53125 320.175781 83.644531 320.707031 85.757812 C 321.152344 87.539062 322.75 88.722656 324.511719 88.722656 C 324.828125 88.722656 325.144531 88.695312 325.460938 88.597656 C 329.617188 87.585938 333.855469 86.609375 338.066406 85.734375 C 340.199219 85.289062 341.554688 83.21875 341.113281 81.078125 C 340.667969 78.945312 338.589844 77.601562 336.457031 78.035156"/><path fill="#2C52FD" d="M 402.054688 730.800781 C 397.78125 730.753906 393.433594 730.636719 389.121094 730.449219 C 386.988281 730.347656 385.136719 732.003906 385.027344 734.160156 C 384.921875 736.332031 386.59375 738.191406 388.753906 738.28125 C 393.179688 738.464844 397.617188 738.617188 402.007812 738.644531 L 402.042969 738.644531 C 404.175781 738.644531 405.949219 736.910156 405.949219 734.75 C 405.957031 732.5625 404.230469 730.800781 402.054688 730.800781"/><path fill="#2C52FD" d="M 74.988281 413.910156 C 74.988281 413.910156 75.015625 413.910156 75.042969 413.910156 C 77.21875 413.875 78.9375 412.074219 78.910156 409.933594 C 78.882812 408.234375 78.882812 406.546875 78.882812 404.847656 C 78.882812 402.199219 78.910156 399.585938 78.957031 396.984375 C 79.019531 394.824219 77.300781 393.015625 75.125 392.972656 C 75.113281 392.972656 75.042969 392.972656 75.042969 392.972656 C 72.910156 392.972656 71.15625 394.660156 71.128906 396.804688 C 71.046875 399.480469 71.039062 402.152344 71.039062 404.847656 C 71.039062 406.582031 71.039062 408.308594 71.066406 410.042969 C 71.085938 412.183594 72.847656 413.910156 74.988281 413.910156"/><path fill="#2C52FD" d="M 77.699219 447.824219 C 79.851562 447.542969 81.386719 445.617188 81.125 443.441406 C 80.636719 439.15625 80.203125 434.820312 79.886719 430.609375 C 79.695312 428.402344 77.789062 426.777344 75.65625 426.976562 C 73.480469 427.15625 71.890625 429.046875 72.050781 431.1875 C 72.375 435.570312 72.820312 439.988281 73.34375 444.378906 C 73.578125 446.378906 75.257812 447.832031 77.238281 447.832031 C 77.375 447.832031 77.546875 447.832031 77.699219 447.824219"/><path fill="#2C52FD" d="M 95.84375 508.929688 C 94.480469 504.890625 93.1875 500.742188 91.96875 496.601562 C 91.363281 494.515625 89.15625 493.320312 87.089844 493.925781 C 85.007812 494.53125 83.808594 496.71875 84.421875 498.808594 C 85.660156 503.046875 86.996094 507.292969 88.398438 511.421875 C 88.941406 513.085938 90.476562 514.132812 92.121094 514.132812 C 92.527344 514.132812 92.960938 514.042969 93.367188 513.898438 C 95.4375 513.21875 96.53125 510.980469 95.84375 508.929688"/><path fill="#2C52FD" d="M 86.800781 476.59375 C 85.859375 472.382812 84.984375 468.109375 84.214844 463.898438 C 83.808594 461.777344 81.757812 460.347656 79.640625 460.773438 C 77.507812 461.132812 76.082031 463.175781 76.480469 465.300781 C 77.273438 469.636719 78.167969 474.011719 79.125 478.3125 C 79.535156 480.09375 81.140625 481.359375 82.96875 481.359375 C 83.246094 481.359375 83.535156 481.339844 83.808594 481.25 C 85.929688 480.78125 87.257812 478.691406 86.800781 476.59375"/><path fill="#2C52FD" d="M 75.855469 379.914062 C 75.964844 379.933594 76.082031 379.933594 76.191406 379.933594 C 78.214844 379.933594 79.914062 378.394531 80.09375 376.34375 C 80.480469 372.054688 80.933594 367.742188 81.46875 363.476562 C 81.738281 361.328125 80.21875 359.375 78.078125 359.085938 C 75.945312 358.832031 73.957031 360.332031 73.679688 362.492188 C 73.117188 366.855469 72.664062 371.292969 72.285156 375.660156 C 72.097656 377.835938 73.695312 379.734375 75.855469 379.914062"/><path fill="#2C52FD" d="M 87.863281 313.070312 C 88.226562 313.179688 88.605469 313.226562 89.003906 313.226562 C 90.675781 313.226562 92.238281 312.140625 92.746094 310.441406 C 93.992188 306.320312 95.355469 302.175781 96.738281 298.144531 C 97.460938 296.09375 96.359375 293.859375 94.308594 293.15625 C 92.257812 292.433594 90.023438 293.515625 89.328125 295.59375 C 87.890625 299.726562 86.507812 303.945312 85.253906 308.164062 C 84.613281 310.261719 85.777344 312.429688 87.863281 313.070312"/><path fill="#2C52FD" d="M 80.128906 346.164062 C 80.375 346.226562 80.617188 346.246094 80.871094 346.246094 C 82.707031 346.246094 84.351562 344.933594 84.730469 343.0625 C 85.535156 338.851562 86.4375 334.597656 87.402344 330.414062 C 87.890625 328.308594 86.589844 326.203125 84.476562 325.703125 C 82.378906 325.21875 80.265625 326.527344 79.757812 328.640625 C 78.757812 332.90625 77.824219 337.253906 77.011719 341.589844 C 76.597656 343.707031 77.996094 345.773438 80.128906 346.164062"/><path fill="#2C52FD" d="M 134.855469 587.554688 C 133.636719 585.765625 131.195312 585.277344 129.398438 586.480469 C 127.597656 587.726562 127.128906 590.15625 128.347656 591.964844 C 130.824219 595.613281 133.390625 599.246094 135.992188 602.773438 C 136.769531 603.820312 137.953125 604.371094 139.15625 604.371094 C 139.976562 604.371094 140.78125 604.128906 141.496094 603.601562 C 143.230469 602.320312 143.609375 599.835938 142.320312 598.117188 C 139.761719 594.640625 137.257812 591.097656 134.855469 587.554688"/><path fill="#2C52FD" d="M 143.03125 204.074219 C 141.28125 202.78125 138.839844 203.132812 137.539062 204.851562 C 134.898438 208.375 132.296875 211.980469 129.804688 215.613281 C 128.574219 217.375 129.027344 219.84375 130.816406 221.070312 C 131.492188 221.542969 132.269531 221.757812 133.046875 221.757812 C 134.285156 221.757812 135.503906 221.160156 136.265625 220.070312 C 138.714844 216.542969 141.242188 213.003906 143.820312 209.578125 C 145.109375 207.84375 144.75 205.382812 143.03125 204.074219"/><path fill="#2C52FD" d="M 159.542969 178.429688 C 156.585938 181.636719 153.632812 184.953125 150.757812 188.316406 C 149.339844 189.984375 149.539062 192.445312 151.191406 193.863281 C 151.941406 194.496094 152.835938 194.800781 153.75 194.800781 C 154.863281 194.800781 155.953125 194.332031 156.730469 193.421875 C 159.542969 190.128906 162.414062 186.878906 165.296875 183.75 C 166.789062 182.152344 166.679688 179.65625 165.089844 178.222656 C 163.492188 176.746094 160.996094 176.847656 159.542969 178.429688"/><path fill="#2C52FD" d="M 103.082031 528.328125 C 102.261719 526.332031 99.964844 525.347656 97.957031 526.1875 C 95.953125 527.019531 94.996094 529.289062 95.816406 531.3125 C 97.472656 535.367188 99.25 539.488281 101.085938 543.484375 C 101.746094 544.910156 103.164062 545.796875 104.664062 545.796875 C 105.207031 545.796875 105.757812 545.671875 106.289062 545.433594 C 108.25 544.53125 109.128906 542.191406 108.214844 540.230469 C 106.445312 536.300781 104.710938 532.324219 103.082031 528.328125"/><path fill="#2C52FD" d="M 155.113281 614.375 C 153.730469 612.683594 151.257812 612.484375 149.601562 613.894531 C 147.929688 615.289062 147.714844 617.746094 149.113281 619.433594 C 151.914062 622.75 154.863281 626.121094 157.816406 629.394531 C 158.601562 630.261719 159.660156 630.683594 160.726562 630.683594 C 161.664062 630.683594 162.613281 630.351562 163.375 629.664062 C 164.964844 628.199219 165.089844 625.707031 163.644531 624.097656 C 160.726562 620.90625 157.851562 617.636719 155.113281 614.375"/><path fill="#2C52FD" d="M 123.738281 232.058594 C 121.886719 230.941406 119.476562 231.527344 118.34375 233.398438 C 116.105469 237.15625 113.890625 240.996094 111.777344 244.863281 C 110.746094 246.78125 111.433594 249.164062 113.339844 250.195312 C 113.933594 250.519531 114.59375 250.683594 115.226562 250.683594 C 116.609375 250.683594 117.949219 249.933594 118.660156 248.652344 C 120.730469 244.863281 122.890625 241.105469 125.09375 237.445312 C 126.207031 235.585938 125.59375 233.152344 123.738281 232.058594"/><path fill="#2C52FD" d="M 107.445312 261.84375 C 105.46875 260.929688 103.136719 261.761719 102.214844 263.722656 C 100.363281 267.734375 98.574219 271.800781 96.867188 275.832031 C 96.023438 277.820312 96.992188 280.117188 98.980469 280.964844 C 99.457031 281.164062 100 281.273438 100.5 281.273438 C 102.015625 281.273438 103.488281 280.359375 104.113281 278.851562 C 105.738281 274.929688 107.519531 270.960938 109.328125 267.066406 C 110.257812 265.105469 109.390625 262.765625 107.445312 261.84375"/><path fill="#2C52FD" d="M 117.433594 558.78125 C 116.402344 556.859375 114.027344 556.132812 112.109375 557.183594 C 110.210938 558.203125 109.5 560.554688 110.527344 562.503906 C 112.578125 566.363281 114.777344 570.242188 117.007812 574.054688 C 117.75 575.253906 119.058594 575.96875 120.394531 575.96875 C 121.082031 575.96875 121.761719 575.808594 122.394531 575.425781 C 124.265625 574.324219 124.878906 571.914062 123.765625 570.042969 C 121.582031 566.320312 119.457031 562.550781 117.433594 558.78125"/><path fill="#2C52FD" d="M 271.640625 702.453125 C 267.734375 700.691406 263.8125 698.828125 259.972656 696.941406 C 258.046875 695.972656 255.671875 696.761719 254.722656 698.710938 C 253.765625 700.628906 254.550781 702.996094 256.484375 703.988281 C 260.40625 705.933594 264.417969 707.820312 268.414062 709.628906 C 268.945312 709.835938 269.480469 709.925781 270.023438 709.925781 C 271.53125 709.925781 272.976562 709.09375 273.617188 707.632812 C 274.496094 705.660156 273.617188 703.328125 271.640625 702.453125"/><path fill="#2C52FD" d="M 729.988281 381.839844 C 730.292969 386.070312 730.511719 390.414062 730.628906 394.753906 C 730.699219 396.875 732.453125 398.566406 734.550781 398.566406 C 734.59375 398.566406 734.640625 398.566406 734.6875 398.566406 C 736.855469 398.492188 738.542969 396.675781 738.492188 394.507812 C 738.347656 390.070312 738.121094 385.625 737.832031 381.296875 C 737.675781 379.109375 735.761719 377.492188 733.636719 377.644531 C 731.476562 377.800781 729.832031 379.6875 729.988281 381.839844"/><path fill="#2C52FD" d="M 725.949219 348.457031 C 726.679688 352.734375 727.347656 357.035156 727.917969 361.246094 C 728.160156 363.242188 729.851562 364.652344 731.792969 364.652344 C 731.964844 364.652344 732.148438 364.652344 732.320312 364.625 C 734.460938 364.34375 735.976562 362.375 735.6875 360.214844 C 735.109375 355.894531 734.425781 351.484375 733.664062 347.140625 C 733.304688 344.996094 731.261719 343.535156 729.136719 343.949219 C 726.996094 344.292969 725.566406 346.34375 725.949219 348.457031"/><path fill="#2C52FD" d="M 718.449219 315.730469 C 719.632812 319.847656 720.726562 324.058594 721.738281 328.21875 C 722.160156 330.023438 723.769531 331.234375 725.566406 331.234375 C 725.867188 331.234375 726.171875 331.191406 726.472656 331.144531 C 728.585938 330.613281 729.878906 328.507812 729.382812 326.390625 C 728.332031 322.117188 727.203125 317.816406 726.019531 313.585938 C 725.421875 311.492188 723.238281 310.289062 721.160156 310.867188 C 719.070312 311.472656 717.878906 313.648438 718.449219 315.730469"/><path fill="#2C52FD" d="M 726.355469 479.0625 C 724.257812 478.554688 722.125 479.847656 721.609375 481.9375 C 720.605469 486.128906 719.496094 490.339844 718.328125 494.441406 C 717.722656 496.53125 718.933594 498.699219 721.015625 499.269531 C 721.382812 499.402344 721.746094 499.457031 722.117188 499.457031 C 723.796875 499.457031 725.378906 498.320312 725.867188 496.601562 C 727.085938 492.375 728.226562 488.054688 729.253906 483.789062 C 729.761719 481.691406 728.46875 479.550781 726.355469 479.0625"/><path fill="#2C52FD" d="M 734.667969 411.640625 C 734.621094 411.640625 734.59375 411.640625 734.550781 411.640625 C 732.453125 411.640625 730.683594 413.332031 730.628906 415.4375 C 730.511719 419.746094 730.257812 424.046875 729.960938 428.351562 C 729.804688 430.507812 731.441406 432.40625 733.601562 432.5625 C 733.691406 432.570312 733.773438 432.570312 733.882812 432.570312 C 735.914062 432.570312 737.648438 430.988281 737.804688 428.9375 C 738.101562 424.546875 738.335938 420.082031 738.472656 415.699219 C 738.542969 413.519531 736.847656 411.695312 734.667969 411.640625"/><path fill="#2C52FD" d="M 712.167969 296.011719 C 712.746094 297.609375 714.273438 298.632812 715.882812 298.632812 C 716.324219 298.632812 716.75 298.566406 717.210938 298.414062 C 719.25 297.699219 720.300781 295.449219 719.585938 293.398438 C 718.113281 289.234375 716.53125 285.058594 714.90625 280.992188 C 714.101562 278.976562 711.824219 277.972656 709.800781 278.789062 C 707.792969 279.582031 706.808594 281.878906 707.613281 283.902344 C 709.203125 287.851562 710.75 291.953125 712.167969 296.011719"/><path fill="#2C52FD" d="M 436.90625 72.546875 C 432.515625 72.140625 428.078125 71.789062 423.714844 71.5625 C 421.5 71.492188 419.691406 73.089844 419.585938 75.269531 C 419.441406 77.429688 421.128906 79.269531 423.273438 79.40625 C 427.527344 79.632812 431.882812 79.949219 436.15625 80.363281 C 436.300781 80.390625 436.429688 80.390625 436.546875 80.390625 C 438.542969 80.390625 440.261719 78.875 440.441406 76.824219 C 440.65625 74.691406 439.078125 72.765625 436.90625 72.546875"/><path fill="#2C52FD" d="M 677.269531 590.960938 C 677.957031 591.402344 678.695312 591.628906 679.457031 591.628906 C 680.730469 591.628906 681.96875 591.007812 682.726562 589.886719 C 685.167969 586.191406 687.5625 582.449219 689.839844 578.726562 C 690.957031 576.855469 690.390625 574.46875 688.519531 573.339844 C 686.675781 572.183594 684.273438 572.78125 683.132812 574.632812 C 680.917969 578.28125 678.585938 581.914062 676.183594 585.503906 C 674.972656 587.300781 675.460938 589.742188 677.269531 590.960938"/><path fill="#2C52FD" d="M 656.292969 197.414062 C 659.042969 200.730469 661.734375 204.136719 664.347656 207.570312 C 665.105469 208.574219 666.289062 209.117188 667.464844 209.117188 C 668.296875 209.117188 669.117188 208.84375 669.832031 208.3125 C 671.558594 206.992188 671.902344 204.535156 670.5625 202.800781 C 667.914062 199.320312 665.152344 195.804688 662.359375 192.445312 C 660.976562 190.746094 658.507812 190.519531 656.820312 191.902344 C 655.164062 193.265625 654.902344 195.742188 656.292969 197.414062"/><path fill="#2C52FD" d="M 709.601562 531.339844 C 710.105469 531.519531 710.605469 531.628906 711.09375 531.628906 C 712.644531 531.628906 714.101562 530.6875 714.742188 529.160156 C 716.351562 525.09375 717.949219 520.929688 719.40625 516.761719 C 720.136719 514.71875 719.070312 512.46875 717.019531 511.746094 C 714.988281 511.015625 712.746094 512.109375 712.003906 514.132812 C 710.585938 518.191406 709.050781 522.246094 707.460938 526.25 C 706.636719 528.25 707.613281 530.515625 709.601562 531.339844"/><g clip-path="url(#a)"><path fill="#2C52FD" d="M 404.835938 763.863281 C 206.558594 763.863281 45.820312 603.132812 45.820312 404.847656 C 45.820312 206.566406 206.558594 45.828125 404.835938 45.828125 C 603.113281 45.828125 763.835938 206.566406 763.835938 404.847656 C 763.835938 603.132812 603.113281 763.863281 404.835938 763.863281 Z M 785.507812 454.960938 C 787.703125 438.101562 809.707031 422.296875 809.707031 404.828125 C 809.707031 387.378906 787.703125 371.554688 785.507812 354.695312 C 783.257812 337.453125 800.398438 316.488281 796.007812 300.03125 C 791.523438 283.277344 766.195312 273.683594 759.644531 257.867188 C 753.003906 241.902344 764.101562 217.195312 755.523438 202.355469 C 746.894531 187.429688 719.910156 184.753906 709.429688 171.117188 C 698.945312 157.464844 703.292969 130.726562 691.121094 118.5625 C 678.957031 106.40625 652.210938 110.71875 638.546875 100.234375 C 624.929688 89.789062 622.234375 62.789062 607.308594 54.160156 C 592.46875 45.546875 567.765625 56.652344 551.796875 50.046875 C 536 43.496094 526.40625 18.140625 509.652344 13.65625 C 493.1875 9.265625 472.230469 26.40625 454.953125 24.167969 C 438.128906 21.945312 422.277344 -0.0429688 404.835938 -0.0429688 C 387.371094 -0.0429688 371.554688 21.945312 354.683594 24.167969 C 337.460938 26.40625 316.503906 9.265625 300.015625 13.65625 C 283.269531 18.140625 273.691406 43.496094 257.878906 50.046875 C 241.910156 56.652344 217.203125 45.546875 202.382812 54.160156 C 187.417969 62.789062 184.726562 89.789062 171.117188 100.234375 C 157.453125 110.71875 130.699219 106.40625 118.542969 118.5625 C 106.378906 130.726562 110.746094 157.464844 100.234375 171.117188 C 89.761719 184.734375 62.78125 187.429688 54.148438 202.355469 C 45.574219 217.195312 56.671875 241.902344 50.039062 257.867188 C 43.503906 273.683594 18.140625 283.277344 13.667969 300.03125 C 9.257812 316.488281 26.417969 337.453125 24.15625 354.695312 C 21.960938 371.554688 -0.0429688 387.378906 -0.0429688 404.828125 C -0.0429688 422.296875 21.960938 438.101562 24.15625 454.960938 C 26.417969 472.230469 9.257812 493.195312 13.667969 509.679688 C 18.140625 526.394531 43.503906 536 50.039062 551.789062 C 56.671875 567.773438 45.574219 592.496094 54.148438 607.300781 C 62.78125 622.261719 89.761719 624.957031 100.234375 638.554688 C 110.710938 652.21875 106.378906 678.976562 118.542969 691.121094 C 130.699219 703.285156 157.4375 698.957031 171.109375 709.472656 C 184.726562 719.929688 187.402344 746.886719 202.367188 755.515625 C 217.203125 764.089844 241.910156 752.992188 257.878906 759.625 C 273.671875 766.167969 283.269531 791.5625 300.015625 796 C 316.488281 800.410156 337.460938 783.273438 354.683594 785.507812 C 371.554688 787.710938 387.371094 809.714844 404.835938 809.714844 C 422.277344 809.714844 438.128906 787.710938 454.953125 785.507812 C 472.230469 783.273438 493.175781 800.410156 509.632812 796 C 526.40625 791.5625 536 766.167969 551.796875 759.644531 C 567.765625 752.992188 592.46875 764.089844 607.308594 755.515625 C 622.234375 746.886719 624.929688 719.929688 638.546875 709.472656 C 652.210938 698.957031 678.957031 703.285156 691.121094 691.121094 C 703.292969 678.976562 698.945312 652.21875 709.429688 638.554688 C 719.910156 624.957031 746.894531 622.261719 755.523438 607.300781 C 764.101562 592.496094 753.003906 567.808594 759.644531 551.789062 C 766.195312 536 791.550781 526.433594 796.007812 509.679688 C 800.398438 493.195312 783.257812 472.230469 785.507812 454.960938"/></g><path fill="#2C52FD" d="M 669.679688 601.597656 C 667.953125 600.277344 665.503906 600.613281 664.183594 602.328125 C 661.582031 605.707031 658.886719 609.140625 656.140625 612.46875 C 654.75 614.140625 654.984375 616.605469 656.675781 617.988281 C 657.378906 618.585938 658.28125 618.882812 659.160156 618.882812 C 660.289062 618.882812 661.417969 618.394531 662.1875 617.4375 C 664.996094 614.066406 667.753906 610.570312 670.410156 607.089844 C 671.738281 605.390625 671.402344 602.90625 669.679688 601.597656"/><path fill="#2C52FD" d="M 699.328125 264.925781 C 699.996094 266.328125 701.40625 267.167969 702.867188 267.167969 C 703.429688 267.167969 704 267.023438 704.539062 266.769531 C 706.5 265.820312 707.332031 263.496094 706.410156 261.535156 C 704.496094 257.523438 702.488281 253.523438 700.464844 249.664062 C 699.460938 247.765625 697.078125 247.023438 695.167969 248.035156 C 693.246094 249.058594 692.503906 251.425781 693.535156 253.339844 C 695.496094 257.109375 697.445312 261.003906 699.328125 264.925781"/><path fill="#2C52FD" d="M 694.980469 561.972656 C 695.566406 562.289062 696.207031 562.425781 696.8125 562.425781 C 698.214844 562.425781 699.597656 561.648438 700.292969 560.308594 C 702.316406 556.476562 704.324219 552.5 706.25 548.515625 C 707.152344 546.566406 706.339844 544.234375 704.378906 543.285156 C 702.40625 542.382812 700.078125 543.167969 699.15625 545.15625 C 697.273438 549.03125 695.339844 552.898438 693.351562 556.675781 C 692.332031 558.582031 693.074219 560.976562 694.980469 561.972656"/><path fill="#2C52FD" d="M 683.304688 235.332031 C 684.046875 236.550781 685.328125 237.210938 686.667969 237.210938 C 687.363281 237.210938 688.058594 237.03125 688.699219 236.640625 C 690.550781 235.511719 691.148438 233.089844 690 231.238281 C 687.742188 227.53125 685.339844 223.765625 682.878906 220.070312 C 681.679688 218.242188 679.246094 217.773438 677.449219 218.976562 C 675.640625 220.175781 675.136719 222.609375 676.347656 224.414062 C 678.757812 228.011719 681.082031 231.699219 683.304688 235.332031"/><path fill="#2C52FD" d="M 732.265625 445.574219 C 730.113281 445.265625 728.117188 446.800781 727.84375 448.925781 C 727.25 453.191406 726.597656 457.472656 725.855469 461.683594 C 725.46875 463.84375 726.90625 465.859375 729.027344 466.25 C 729.253906 466.304688 729.5 466.304688 729.714844 466.304688 C 731.59375 466.304688 733.238281 464.984375 733.59375 463.066406 C 734.332031 458.730469 735.039062 454.355469 735.617188 449.972656 C 735.914062 447.832031 734.398438 445.84375 732.265625 445.574219"/><path fill="#2C52FD" d="M 504.292969 86.09375 C 500.097656 84.792969 495.835938 83.554688 491.578125 82.417969 C 489.492188 81.863281 487.320312 83.085938 486.761719 85.179688 C 486.210938 87.296875 487.449219 89.4375 489.527344 89.996094 C 493.691406 91.128906 497.867188 92.3125 501.960938 93.585938 C 502.339844 93.710938 502.738281 93.757812 503.117188 93.757812 C 504.808594 93.757812 506.34375 92.707031 506.875 91.019531 C 507.507812 88.941406 506.351562 86.734375 504.292969 86.09375"/><path fill="#2C52FD" d="M 533.039062 704.621094 C 529.097656 706.292969 525.039062 707.957031 521.011719 709.5 C 519.003906 710.261719 517.964844 712.527344 518.761719 714.554688 C 519.355469 716.144531 520.820312 717.09375 522.429688 717.09375 C 522.878906 717.09375 523.367188 716.992188 523.820312 716.847656 C 527.941406 715.25 532.089844 713.59375 536.117188 711.84375 C 538.125 710.972656 539.039062 708.671875 538.1875 706.691406 C 537.339844 704.703125 535.027344 703.753906 533.039062 704.621094"/><path fill="#2C52FD" d="M 536.527344 98.03125 C 532.503906 96.277344 528.382812 94.605469 524.289062 93.042969 C 522.285156 92.246094 520.023438 93.285156 519.230469 95.3125 C 518.460938 97.328125 519.457031 99.59375 521.480469 100.371094 C 525.472656 101.890625 529.503906 103.542969 533.425781 105.234375 C 533.933594 105.460938 534.464844 105.550781 534.980469 105.550781 C 536.5 105.550781 537.945312 104.65625 538.59375 103.183594 C 539.445312 101.175781 538.539062 98.878906 536.527344 98.03125"/><path fill="#2C52FD" d="M 501.445312 716.25 C 497.324219 717.535156 493.140625 718.746094 489.011719 719.8125 C 486.914062 720.390625 485.675781 722.53125 486.230469 724.65625 C 486.699219 726.390625 488.296875 727.546875 490.015625 727.546875 C 490.359375 727.546875 490.683594 727.527344 491.027344 727.410156 C 495.273438 726.292969 499.546875 725.054688 503.757812 723.761719 C 505.835938 723.109375 506.996094 720.933594 506.34375 718.855469 C 505.703125 716.757812 503.515625 715.601562 501.445312 716.25"/><path fill="#2C52FD" d="M 468.878906 724.539062 C 464.703125 725.324219 460.402344 726.121094 456.144531 726.789062 C 454.011719 727.140625 452.558594 729.148438 452.894531 731.289062 C 453.191406 733.203125 454.863281 734.585938 456.769531 734.585938 C 456.960938 734.585938 457.167969 734.585938 457.394531 734.558594 C 461.738281 733.855469 466.113281 733.09375 470.414062 732.210938 C 472.527344 731.785156 473.929688 729.707031 473.488281 727.609375 C 473.0625 725.476562 470.992188 724.066406 468.878906 724.539062"/><path fill="#2C52FD" d="M 470.949219 77.5625 C 466.628906 76.714844 462.253906 75.929688 457.925781 75.242188 C 455.8125 74.878906 453.75 76.351562 453.433594 78.496094 C 453.09375 80.617188 454.546875 82.660156 456.6875 82.976562 C 460.917969 83.644531 465.183594 84.421875 469.402344 85.289062 C 469.671875 85.335938 469.925781 85.34375 470.171875 85.34375 C 471.996094 85.34375 473.667969 84.070312 474.039062 82.199219 C 474.464844 80.074219 473.089844 77.988281 470.949219 77.5625"/><path fill="#2C52FD" d="M 563.226562 689.800781 C 559.46875 691.890625 555.621094 693.929688 551.796875 695.882812 C 549.84375 696.859375 549.085938 699.226562 550.082031 701.160156 C 550.75 702.507812 552.132812 703.320312 553.566406 703.320312 C 554.171875 703.320312 554.789062 703.167969 555.347656 702.878906 C 559.261719 700.890625 563.210938 698.800781 567.058594 696.660156 C 568.9375 695.59375 569.625 693.226562 568.578125 691.320312 C 567.53125 689.421875 565.125 688.71875 563.226562 689.800781"/><path fill="#2C52FD" d="M 639.097656 167.0625 C 637.5625 165.523438 635.066406 165.550781 633.558594 167.070312 C 632.039062 168.640625 632.058594 171.117188 633.578125 172.652344 C 636.660156 175.679688 639.703125 178.800781 642.621094 181.878906 C 643.398438 182.730469 644.449219 183.144531 645.496094 183.144531 C 646.453125 183.144531 647.410156 182.792969 648.171875 182.078125 C 649.769531 180.589844 649.84375 178.113281 648.371094 176.53125 C 645.371094 173.332031 642.261719 170.160156 639.097656 167.0625"/><path fill="#2C52FD" d="M 618.242188 651.234375 C 614.972656 654.082031 611.628906 656.875 608.300781 659.53125 C 606.59375 660.886719 606.324219 663.378906 607.667969 665.070312 C 608.445312 666.007812 609.59375 666.515625 610.742188 666.515625 C 611.601562 666.515625 612.457031 666.242188 613.191406 665.664062 C 616.597656 662.925781 620.03125 660.070312 623.355469 657.179688 C 625 655.78125 625.191406 653.285156 623.773438 651.660156 C 622.363281 650.003906 619.851562 649.824219 618.242188 651.234375"/><path fill="#2C52FD" d="M 613.390625 144.199219 C 611.699219 142.84375 609.222656 143.105469 607.886719 144.804688 C 606.53125 146.503906 606.792969 148.96875 608.492188 150.324219 C 611.84375 152.980469 615.167969 155.765625 618.421875 158.59375 C 619.136719 159.226562 620.066406 159.578125 620.988281 159.578125 C 622.082031 159.578125 623.183594 159.089844 623.953125 158.214844 C 625.371094 156.570312 625.191406 154.09375 623.566406 152.664062 C 620.230469 149.792969 616.804688 146.917969 613.390625 144.199219"/><path fill="#2C52FD" d="M 642.449219 627.964844 C 639.550781 631.066406 636.515625 634.164062 633.421875 637.21875 C 631.878906 638.726562 631.859375 641.214844 633.371094 642.765625 C 634.15625 643.542969 635.175781 643.941406 636.179688 643.941406 C 637.164062 643.941406 638.167969 643.570312 638.945312 642.832031 C 642.089844 639.675781 645.207031 636.503906 648.1875 633.34375 C 649.671875 631.761719 649.597656 629.285156 648.007812 627.792969 C 646.417969 626.304688 643.960938 626.375 642.449219 627.964844"/><path fill="#2C52FD" d="M 596.464844 131.484375 C 592.867188 128.964844 589.171875 126.488281 585.492188 124.09375 C 583.6875 122.925781 581.257812 123.441406 580.070312 125.25 C 578.878906 127.09375 579.414062 129.515625 581.238281 130.699219 C 584.824219 133.019531 588.449219 135.449219 591.957031 137.898438 C 592.625 138.386719 593.429688 138.632812 594.222656 138.632812 C 595.453125 138.632812 596.671875 138.035156 597.429688 136.976562 C 598.679688 135.179688 598.234375 132.730469 596.464844 131.484375"/><path fill="#2C52FD" d="M 567.359375 113.210938 C 563.507812 111.042969 559.585938 108.957031 555.683594 106.996094 C 553.765625 106.011719 551.398438 106.769531 550.40625 108.703125 C 549.4375 110.628906 550.199219 113.011719 552.132812 114.007812 C 555.945312 115.921875 559.777344 117.976562 563.527344 120.054688 C 564.121094 120.386719 564.792969 120.539062 565.425781 120.539062 C 566.796875 120.539062 568.144531 119.84375 568.867188 118.554688 C 569.914062 116.644531 569.246094 114.25 567.359375 113.210938"/><path fill="#2C52FD" d="M 591.730469 671.9375 C 588.195312 674.421875 584.574219 676.851562 580.976562 679.148438 C 579.160156 680.304688 578.636719 682.761719 579.808594 684.589844 C 580.542969 685.726562 581.824219 686.378906 583.109375 686.378906 C 583.847656 686.378906 584.574219 686.1875 585.242188 685.753906 C 588.917969 683.386719 592.625 680.910156 596.238281 678.390625 C 598.007812 677.125 598.453125 674.65625 597.207031 672.894531 C 595.957031 671.125 593.492188 670.691406 591.730469 671.9375"/><g clip-path="url(#b)"><path fill="#2C52FD" d="M 383.660156 332.726562 L 311.289062 260.484375 L 340.128906 231.691406 L 383.660156 275.140625 L 493.027344 165.988281 L 521.867188 194.769531 Z M 383.660156 332.726562"/></g><g fill="#2C52FD"><g><g><path d="M 19.3125 -42.453125 C 12.078125 -42.453125 3.46875 -39.523438 3.585938 -30.855469 C 3.585938 -22.242188 11.121094 -20.449219 19.132812 -19.195312 C 23.5 -18.535156 31.570312 -17.640625 31.511719 -11.898438 C 31.511719 -5.679688 24.574219 -4.246094 19.433594 -4.246094 C 15.726562 -4.246094 11.480469 -5.441406 8.550781 -7.535156 L 8.3125 -13.394531 L 3.585938 -13.394531 L 3.585938 -5.082031 C 8.25 -0.898438 13.335938 0.597656 19.375 0.597656 C 27.386719 0.597656 36.652344 -2.152344 36.714844 -11.898438 C 36.714844 -21.046875 28.222656 -22.664062 19.730469 -23.976562 C 13.691406 -24.992188 8.730469 -26.070312 8.730469 -30.734375 C 8.730469 -35.757812 14.171875 -37.851562 19.433594 -37.851562 C 22.664062 -37.851562 26.546875 -37.132812 29.359375 -35.398438 L 29.597656 -29.359375 L 34.203125 -29.359375 C 34.203125 -32.410156 34.261719 -34.621094 34.261719 -37.671875 C 29.777344 -41.378906 24.875 -42.453125 19.3125 -42.453125 Z M 19.3125 -42.453125" transform="translate(210.353 426.232)"/></g></g></g><g fill="#2C52FD"><g><g><path d="M 47.957031 0 L 47.957031 -4.785156 L 43.890625 -4.785156 L 27.503906 -41.855469 L 14.589844 -41.855469 L 14.589844 -37.132812 L 19.433594 -37.132812 L 4.605469 -4.785156 L 0.65625 -4.785156 L 0.65625 0 L 15.425781 0 L 15.425781 -4.785156 L 10.34375 -4.785156 C 11.480469 -7.414062 12.675781 -9.984375 13.632812 -12.199219 L 35.097656 -12.199219 C 36.117188 -9.925781 37.132812 -7.355469 38.328125 -4.785156 L 33.125 -4.785156 L 33.125 0 Z M 33.007812 -16.863281 L 15.667969 -16.863281 C 18.175781 -22.601562 20.929688 -28.582031 24.574219 -36.773438 C 28.042969 -28.761719 30.496094 -22.722656 33.007812 -16.863281 Z M 33.007812 -16.863281" transform="translate(249.573 426.232)"/></g></g></g><g fill="#2C52FD"><g><g><path d="M 6.695312 -37.191406 L 16.621094 -37.191406 L 16.621094 -4.785156 L 11.179688 -4.785156 L 11.179688 0 L 27.148438 0 L 27.148438 -4.785156 L 21.765625 -4.785156 L 21.765625 -37.191406 L 31.632812 -37.191406 L 31.871094 -30.734375 L 36.476562 -30.734375 L 36.476562 -41.855469 L 1.914062 -41.855469 L 1.914062 -30.734375 L 6.519531 -30.734375 Z M 6.695312 -37.191406" transform="translate(298 426.232)"/></g></g></g><g fill="#2C52FD"><g><g><path d="M 18.953125 0 L 18.953125 -4.785156 L 13.574219 -4.785156 L 13.574219 -37.074219 L 18.835938 -37.074219 L 18.835938 -41.855469 L 3.167969 -41.855469 L 3.167969 -37.074219 L 8.371094 -37.074219 L 8.371094 -4.785156 L 3.050781 -4.785156 L 3.050781 0 Z M 18.953125 0" transform="translate(336.382 426.232)"/></g></g></g><g fill="#2C52FD"><g><g><path d="M 19.3125 -42.453125 C 12.078125 -42.453125 3.46875 -39.523438 3.585938 -30.855469 C 3.585938 -22.242188 11.121094 -20.449219 19.132812 -19.195312 C 23.5 -18.535156 31.570312 -17.640625 31.511719 -11.898438 C 31.511719 -5.679688 24.574219 -4.246094 19.433594 -4.246094 C 15.726562 -4.246094 11.480469 -5.441406 8.550781 -7.535156 L 8.3125 -13.394531 L 3.585938 -13.394531 L 3.585938 -5.082031 C 8.25 -0.898438 13.335938 0.597656 19.375 0.597656 C 27.386719 0.597656 36.652344 -2.152344 36.714844 -11.898438 C 36.714844 -21.046875 28.222656 -22.664062 19.730469 -23.976562 C 13.691406 -24.992188 8.730469 -26.070312 8.730469 -30.734375 C 8.730469 -35.757812 14.171875 -37.851562 19.433594 -37.851562 C 22.664062 -37.851562 26.546875 -37.132812 29.359375 -35.398438 L 29.597656 -29.359375 L 34.203125 -29.359375 C 34.203125 -32.410156 34.261719 -34.621094 34.261719 -37.671875 C 29.777344 -41.378906 24.875 -42.453125 19.3125 -42.453125 Z M 19.3125 -42.453125" transform="translate(358.384 426.232)"/></g></g></g><g fill="#2C52FD"><g><g><path d="M 3.230469 -37.132812 L 8.371094 -37.132812 L 8.371094 -4.785156 L 3.167969 -4.785156 L 3.167969 0 L 19.253906 0 L 19.253906 -4.785156 L 13.574219 -4.785156 L 13.574219 -18.714844 L 31.511719 -18.714844 L 31.511719 -23.558594 L 13.574219 -23.558594 L 13.574219 -37.191406 L 31.152344 -37.191406 L 31.332031 -30.734375 L 35.996094 -30.734375 L 35.996094 -41.855469 L 3.230469 -41.855469 Z M 3.230469 -37.132812" transform="translate(397.604 426.232)"/></g></g></g><g fill="#2C52FD"><g><g><path d="M 47.957031 0 L 47.957031 -4.785156 L 43.890625 -4.785156 L 27.503906 -41.855469 L 14.589844 -41.855469 L 14.589844 -37.132812 L 19.433594 -37.132812 L 4.605469 -4.785156 L 0.65625 -4.785156 L 0.65625 0 L 15.425781 0 L 15.425781 -4.785156 L 10.34375 -4.785156 C 11.480469 -7.414062 12.675781 -9.984375 13.632812 -12.199219 L 35.097656 -12.199219 C 36.117188 -9.925781 37.132812 -7.355469 38.328125 -4.785156 L 33.125 -4.785156 L 33.125 0 Z M 33.007812 -16.863281 L 15.667969 -16.863281 C 18.175781 -22.601562 20.929688 -28.582031 24.574219 -36.773438 C 28.042969 -28.761719 30.496094 -22.722656 33.007812 -16.863281 Z M 33.007812 -16.863281" transform="translate(435.628 426.232)"/></g></g></g><g fill="#2C52FD"><g><g><path d="M 40.242188 -5.621094 L 36.535156 -9.148438 C 33.425781 -6.039062 28.878906 -4.363281 24.753906 -4.363281 C 13.453125 -4.363281 8.25 -12.257812 8.132812 -20.75 C 8.074219 -29.359375 13.453125 -37.550781 24.753906 -37.550781 C 27.804688 -37.550781 30.734375 -36.953125 33.425781 -35.277344 L 33.605469 -28.820312 L 38.269531 -28.820312 C 38.328125 -31.75 38.386719 -34.742188 38.386719 -37.671875 C 34.441406 -40.839844 29.597656 -42.515625 24.753906 -42.515625 C 10.046875 -42.515625 2.808594 -31.691406 2.929688 -20.6875 C 2.988281 -10.285156 9.089844 -0.71875 22.003906 0.417969 L 20.089844 6.097656 L 21.046875 6.875 C 24.515625 5.621094 27.148438 7.472656 26.488281 9.6875 C 26.070312 11.003906 24.695312 11.660156 23.199219 11.71875 C 21.527344 11.78125 19.851562 11.121094 18.777344 9.566406 L 16.382812 11.660156 C 17.820312 14.050781 20.628906 15.246094 23.320312 15.246094 C 26.429688 15.246094 29.597656 13.632812 30.375 10.285156 C 31.035156 7.355469 29.65625 3.828125 24.457031 3.886719 L 25.53125 0.597656 C 30.972656 0.417969 36.175781 -1.613281 40.242188 -5.621094 Z M 40.242188 -5.621094" transform="translate(484.055 426.232)"/></g></g></g><g fill="#2C52FD"><g><g><path d="M 14.410156 -46.878906 L 14.53125 -46.699219 L 17.699219 -45.265625 C 18.417969 -47.238281 19.851562 -47.535156 21.167969 -47.058594 C 21.765625 -46.9375 23.796875 -45.683594 24.515625 -45.503906 C 27.324219 -44.367188 30.554688 -45.625 31.511719 -49.75 L 28.222656 -51.125 C 27.625 -49.269531 26.25 -49.03125 24.992188 -49.511719 C 24.335938 -49.6875 22.304688 -50.945312 21.585938 -51.125 C 18.238281 -52.320312 15.308594 -50.464844 14.410156 -46.878906 Z M 47.957031 0 L 47.957031 -4.785156 L 43.890625 -4.785156 L 27.503906 -41.855469 L 14.589844 -41.855469 L 14.589844 -37.132812 L 19.433594 -37.132812 L 15.007812 -27.566406 L 4.722656 -4.785156 L 0.65625 -4.785156 L 0.65625 0 L 15.425781 0 L 15.425781 -4.785156 L 10.34375 -4.785156 C 11.480469 -7.414062 12.675781 -9.984375 13.632812 -12.199219 L 35.097656 -12.199219 C 36.117188 -9.925781 37.132812 -7.355469 38.328125 -4.785156 L 33.125 -4.785156 L 33.125 0 Z M 33.007812 -16.863281 L 15.667969 -16.863281 C 18.175781 -22.601562 20.929688 -28.582031 24.574219 -36.773438 C 28.042969 -28.761719 30.496094 -22.722656 33.007812 -16.863281 Z M 33.007812 -16.863281" transform="translate(526.024 426.232)"/></g></g></g><g fill="#2C52FD"><g><g><path d="M 24.277344 -42.453125 C 11.0625 -42.453125 2.929688 -32.945312 2.929688 -20.808594 C 2.929688 -9.804688 9.867188 0.597656 24.21875 0.597656 C 38.566406 0.597656 45.382812 -9.867188 45.445312 -20.808594 C 45.503906 -31.871094 38.449219 -42.394531 24.277344 -42.453125 Z M 40.242188 -20.808594 C 40.242188 -12.558594 35.277344 -4.304688 24.277344 -4.304688 C 13.273438 -4.304688 8.132812 -12.316406 8.132812 -20.808594 C 8.132812 -29.957031 13.632812 -37.671875 24.277344 -37.671875 C 35.21875 -37.550781 40.300781 -29.300781 40.242188 -20.808594 Z M 40.242188 -20.808594" transform="translate(574.451 426.232)"/></g></g></g><g fill="#2C52FD"><g><g><path d="M 7.128906 -10.84375 L 7.128906 0 L 58.230469 0 L 58.230469 -10.84375 L 39.363281 -10.84375 L 39.363281 -105.46875 L 8.171875 -96.257812 L 8.171875 -84.375 L 26.441406 -89.277344 L 26.441406 -10.84375 Z M 7.128906 -10.84375" transform="translate(228.896 554.972)"/></g></g></g><g fill="#2C52FD"><g><g><path d="M 8.914062 -62.390625 L 8.914062 -41.59375 C 8.914062 -12.773438 30.007812 1.484375 51.101562 1.484375 C 72.046875 1.484375 92.992188 -12.921875 92.992188 -41.59375 L 92.992188 -62.390625 C 92.992188 -91.058594 71.898438 -105.46875 50.953125 -105.46875 C 29.859375 -105.46875 8.914062 -91.207031 8.914062 -62.390625 Z M 21.835938 -41.59375 L 21.835938 -62.390625 C 21.835938 -83.039062 36.246094 -93.4375 50.804688 -93.4375 C 65.359375 -93.4375 80.066406 -83.039062 80.066406 -62.539062 L 80.066406 -41.742188 C 80.066406 -21.242188 65.65625 -10.546875 51.25 -10.546875 C 36.542969 -10.546875 21.835938 -20.648438 21.835938 -41.59375 Z M 21.835938 -41.59375" transform="translate(290.543 554.972)"/></g></g></g><g fill="#2C52FD"><g><g><path d="M 8.914062 -62.390625 L 8.914062 -41.59375 C 8.914062 -12.773438 30.007812 1.484375 51.101562 1.484375 C 72.046875 1.484375 92.992188 -12.921875 92.992188 -41.59375 L 92.992188 -62.390625 C 92.992188 -91.058594 71.898438 -105.46875 50.953125 -105.46875 C 29.859375 -105.46875 8.914062 -91.207031 8.914062 -62.390625 Z M 21.835938 -41.59375 L 21.835938 -62.390625 C 21.835938 -83.039062 36.246094 -93.4375 50.804688 -93.4375 C 65.359375 -93.4375 80.066406 -83.039062 80.066406 -62.539062 L 80.066406 -41.742188 C 80.066406 -21.242188 65.65625 -10.546875 51.25 -10.546875 C 36.542969 -10.546875 21.835938 -20.648438 21.835938 -41.59375 Z M 21.835938 -41.59375" transform="translate(392.447 554.972)"/></g></g></g><g fill="#2C52FD"><g><g><path d="M 28.371094 -105.320312 C -2.675781 -105.320312 -2.675781 -60.160156 28.371094 -60.160156 C 59.566406 -60.160156 59.566406 -105.320312 28.371094 -105.320312 Z M 81.402344 -104.28125 L 14.113281 0 L 27.925781 0 L 95.070312 -104.28125 Z M 28.222656 -95.664062 L 28.371094 -95.664062 C 45.605469 -95.664062 45.753906 -69.964844 28.519531 -69.964844 C 10.992188 -69.964844 10.84375 -95.664062 28.222656 -95.664062 Z M 81.402344 -44.117188 C 50.359375 -44.117188 50.359375 1.039062 81.402344 1.039062 C 112.597656 1.039062 112.597656 -44.117188 81.402344 -44.117188 Z M 81.402344 -34.613281 C 98.636719 -34.613281 98.785156 -8.617188 81.402344 -8.617188 C 64.171875 -8.617188 64.023438 -34.613281 81.402344 -34.613281 Z M 81.402344 -34.613281" transform="translate(494.351 554.972)"/></g></g></g><g fill="#2C52FD"><g><g><path d="M 24.695312 -42.453125 C 11.121094 -42.453125 2.929688 -33.066406 2.988281 -20.628906 C 2.988281 -9.328125 9.867188 0.597656 24.753906 0.597656 C 31.09375 0.597656 36.355469 -1.675781 40.242188 -6.457031 L 40.242188 -21.585938 L 22.601562 -21.585938 L 22.601562 -17.101562 L 35.636719 -17.101562 L 35.636719 -8.492188 C 32.46875 -5.441406 29.121094 -4.304688 24.816406 -4.304688 C 13.394531 -4.304688 8.132812 -12.136719 8.132812 -20.628906 C 8.132812 -29.71875 13.933594 -37.609375 24.695312 -37.609375 C 27.984375 -37.609375 31.632812 -36.832031 34.5 -35.097656 L 34.621094 -28.761719 L 39.285156 -28.761719 C 39.34375 -31.8125 39.40625 -34.621094 39.40625 -37.492188 C 35.039062 -41.078125 30.195312 -42.453125 24.695312 -42.453125 Z M 24.695312 -42.453125" transform="translate(220.76 627.03)"/></g></g></g><g fill="#2C52FD"><g><g><path d="M 47.957031 0 L 47.957031 -4.785156 L 43.890625 -4.785156 L 27.503906 -41.855469 L 14.589844 -41.855469 L 14.589844 -37.132812 L 19.433594 -37.132812 L 4.605469 -4.785156 L 0.65625 -4.785156 L 0.65625 0 L 15.425781 0 L 15.425781 -4.785156 L 10.34375 -4.785156 C 11.480469 -7.414062 12.675781 -9.984375 13.632812 -12.199219 L 35.097656 -12.199219 C 36.117188 -9.925781 37.132812 -7.355469 38.328125 -4.785156 L 33.125 -4.785156 L 33.125 0 Z M 33.007812 -16.863281 L 15.667969 -16.863281 C 18.175781 -22.601562 20.929688 -28.582031 24.574219 -36.773438 C 28.042969 -28.761719 30.496094 -22.722656 33.007812 -16.863281 Z M 33.007812 -16.863281" transform="translate(264.643 627.03)"/></g></g></g><g fill="#2C52FD"><g><g><path d="M 13.574219 -4.84375 L 13.574219 -16.023438 L 21.886719 -16.023438 L 31.035156 -4.425781 L 31.035156 0 L 42.632812 0 L 42.632812 -4.84375 L 36.953125 -4.84375 L 27.746094 -16.144531 C 35.636719 -16.5625 40.898438 -21.167969 40.898438 -29.179688 C 40.839844 -37.550781 34.859375 -41.855469 26.726562 -41.855469 L 3.167969 -41.855469 L 3.167969 -37.074219 L 8.371094 -37.074219 L 8.371094 -4.84375 L 3.230469 -4.84375 L 3.230469 0 L 19.492188 0 L 19.492188 -4.84375 Z M 26.667969 -20.507812 L 13.574219 -20.507812 L 13.574219 -37.074219 L 26.726562 -37.074219 C 32.050781 -37.074219 35.699219 -34.082031 35.699219 -29 C 35.636719 -23.917969 32.886719 -20.507812 26.667969 -20.507812 Z M 26.667969 -20.507812" transform="translate(313.07 627.03)"/></g></g></g><g fill="#2C52FD"><g><g><path d="M 47.957031 0 L 47.957031 -4.785156 L 43.890625 -4.785156 L 27.503906 -41.855469 L 14.589844 -41.855469 L 14.589844 -37.132812 L 19.433594 -37.132812 L 4.605469 -4.785156 L 0.65625 -4.785156 L 0.65625 0 L 15.425781 0 L 15.425781 -4.785156 L 10.34375 -4.785156 C 11.480469 -7.414062 12.675781 -9.984375 13.632812 -12.199219 L 35.097656 -12.199219 C 36.117188 -9.925781 37.132812 -7.355469 38.328125 -4.785156 L 33.125 -4.785156 L 33.125 0 Z M 33.007812 -16.863281 L 15.667969 -16.863281 C 18.175781 -22.601562 20.929688 -28.582031 24.574219 -36.773438 C 28.042969 -28.761719 30.496094 -22.722656 33.007812 -16.863281 Z M 33.007812 -16.863281" transform="translate(357.91 627.03)"/></g></g></g><g fill="#2C52FD"><g><g><path d="M 13.394531 -4.722656 L 13.394531 -31.929688 L 39.105469 0 L 42.691406 0 L 42.691406 -37.074219 L 47.714844 -37.074219 L 47.714844 -41.855469 L 32.347656 -41.855469 L 32.347656 -37.074219 L 37.550781 -37.074219 L 37.550781 -9.746094 L 11.898438 -41.855469 L 2.988281 -41.855469 L 2.988281 -37.074219 L 8.191406 -37.074219 L 8.191406 -4.722656 L 3.167969 -4.722656 L 3.167969 0 L 18.597656 0 L 18.597656 -4.722656 Z M 13.394531 -4.722656" transform="translate(406.336 627.03)"/></g></g></g><g fill="#2C52FD"><g><g><path d="M 6.695312 -37.191406 L 16.621094 -37.191406 L 16.621094 -4.785156 L 11.179688 -4.785156 L 11.179688 0 L 27.148438 0 L 27.148438 -4.785156 L 21.765625 -4.785156 L 21.765625 -37.191406 L 31.632812 -37.191406 L 31.871094 -30.734375 L 36.476562 -30.734375 L 36.476562 -41.855469 L 1.914062 -41.855469 L 1.914062 -30.734375 L 6.519531 -30.734375 Z M 6.695312 -37.191406" transform="translate(456.736 627.03)"/></g></g></g><g fill="#2C52FD"><g><g><path d="M 18.953125 0 L 18.953125 -4.785156 L 13.574219 -4.785156 L 13.574219 -37.074219 L 18.835938 -37.074219 L 18.835938 -41.855469 L 3.167969 -41.855469 L 3.167969 -37.074219 L 8.371094 -37.074219 L 8.371094 -4.785156 L 3.050781 -4.785156 L 3.050781 0 Z M 18.953125 0" transform="translate(495.119 627.03)"/></g></g></g><g fill="#2C52FD"><g><g><path d="M 3.167969 -37.132812 L 8.25 -37.132812 L 8.25 -4.785156 L 3.050781 -4.785156 L 3.050781 0 L 22.78125 0 C 37.429688 0 43.828125 -10.105469 43.828125 -21.347656 C 43.828125 -32.527344 37.011719 -41.855469 22.78125 -41.855469 L 3.167969 -41.855469 Z M 22.78125 -4.785156 L 13.511719 -4.785156 L 13.511719 -37.074219 L 22.78125 -37.074219 C 33.484375 -37.074219 38.628906 -29.480469 38.628906 -21.40625 C 38.628906 -13.214844 33.902344 -4.785156 22.78125 -4.785156 Z M 22.78125 -4.785156" transform="translate(517.12 627.03)"/></g></g></g><g fill="#2C52FD"><g><g><path d="M 47.957031 0 L 47.957031 -4.785156 L 43.890625 -4.785156 L 27.503906 -41.855469 L 14.589844 -41.855469 L 14.589844 -37.132812 L 19.433594 -37.132812 L 4.605469 -4.785156 L 0.65625 -4.785156 L 0.65625 0 L 15.425781 0 L 15.425781 -4.785156 L 10.34375 -4.785156 C 11.480469 -7.414062 12.675781 -9.984375 13.632812 -12.199219 L 35.097656 -12.199219 C 36.117188 -9.925781 37.132812 -7.355469 38.328125 -4.785156 L 33.125 -4.785156 L 33.125 0 Z M 33.007812 -16.863281 L 15.667969 -16.863281 C 18.175781 -22.601562 20.929688 -28.582031 24.574219 -36.773438 C 28.042969 -28.761719 30.496094 -22.722656 33.007812 -16.863281 Z M 33.007812 -16.863281" transform="translate(563.992 627.03)"/></g></g></g></svg>